<svg id="Ebene_1" data-name="Ebene 1" xmlns="http://www.w3.org/2000/svg" viewBox="0 0 504.06 504.06">
  <rect width="504.06" height="504.06" style="fill: #000; stroke-width: 0px;"/>
  <g>
    <g>
      <path d="M82.21,413.05c-13.29,0-21.29-4.79-23.33-9.54-1.88-4.38,1.02-8.76,3.78-11.66l76.88-80.84c5.2-5.47,14.68-8.87,24.72-8.87.63,0,1.26.01,1.88.04l160.1,7c5.4.24,9.85,2.69,11.62,6.4,1.41,2.96.95,6.27-1.3,9.32l-44.35,60.21c-3.6,4.88-10.47,8.49-17.51,9.19l-186.74,18.46c-1.96.19-3.9.29-5.77.29Z" style="fill: #fff; stroke-width: 0px;"/>
      <path d="M164.26,306.14h0c.57,0,1.14.01,1.71.04l160.1,7c4.68.2,7.3,2.27,8.19,4.13.77,1.6.46,3.36-.91,5.23l-44.35,60.21c-2.91,3.95-8.81,7-14.68,7.58l-186.74,18.46c-1.82.18-3.63.27-5.37.27-10.9,0-18.14-3.58-19.65-7.12-1.07-2.5,1.42-5.66,3-7.32l76.88-80.84c4.41-4.63,12.97-7.63,21.82-7.63M164.26,298.14c-10.97,0-21.62,3.81-27.62,10.11l-76.88,80.84c-13.42,14.11-.76,27.95,22.45,27.95,1.98,0,4.04-.1,6.16-.31l186.74-18.46c8.23-.81,16.09-5.02,20.34-10.79l44.35-60.21c7.18-9.75.26-21.49-13.37-22.09l-160.1-7c-.69-.03-1.37-.04-2.06-.04h0Z" style="fill: #fff; stroke-width: 0px;"/>
    </g>
    <g>
      <path d="M352.06,281.52c-.44,0-.88-.02-1.33-.05l-147.38-11.6c-11.98-.94-19.42-6.83-21.46-12.25-1.36-3.6-.45-7.19,2.64-10.38l60.61-62.65c2.89-2.99,7.71-4.7,13.24-4.7,2.08,0,4.2.24,6.31.73l127.93,29.32c4.35,1,7.94,4.03,9.37,7.91.65,1.78,1.38,5.24-1.06,8.53l-37.08,49.76c-2.48,3.32-6.99,5.39-11.78,5.39Z" style="fill: #fff; stroke-width: 0px;"/>
      <path d="M258.38,183.89h0c1.78,0,3.6.21,5.41.62l127.93,29.32c3.65.84,5.75,3.33,6.51,5.39.46,1.24.74,3.07-.52,4.75l-37.09,49.76c-1.71,2.3-5.08,3.78-8.57,3.78-.34,0-.68-.01-1.01-.04l-147.38-11.6c-9.73-.77-16.44-5.45-18.04-9.68-.51-1.34-.88-3.44,1.77-6.18l60.61-62.65c2.11-2.18,5.98-3.48,10.37-3.48M258.38,175.89c-6.49,0-12.39,2.07-16.12,5.92l-60.61,62.65c-11.37,11.75.65,27.76,21.39,29.4l147.38,11.6c.55.04,1.1.06,1.64.06,6.06,0,11.74-2.64,14.99-7l37.09-49.76c6.04-8.1.53-20.17-10.62-22.72l-127.93-29.32c-2.43-.56-4.85-.83-7.2-.83h0Z" style="fill: #fff; stroke-width: 0px;"/>
    </g>
    <g>
      <path d="M416.67,190.8c-.94,0-1.9-.13-2.86-.38l-118.8-30.84c-9.4-2.44-15.1-8.93-16.59-14.28-.67-2.4-.85-5.89,2.05-8.84l49.05-50.01c1.6-1.63,4.11-2.53,7.06-2.53,2.31,0,4.83.54,7.29,1.57l104.15,43.57c3.73,1.56,6.73,5.08,7.84,9.18.8,2.94.45,5.7-.95,7.57l-31.5,41.87c-1.49,1.98-3.95,3.11-6.76,3.11Z" style="fill: #fff; stroke-width: 0px;"/>
      <path d="M336.59,87.92c1.78,0,3.77.44,5.75,1.26l104.15,43.58c2.57,1.08,4.74,3.64,5.53,6.53.46,1.69.35,3.27-.29,4.12l-31.5,41.87c-.99,1.32-2.66,1.52-3.56,1.52-.6,0-1.23-.08-1.86-.25l-118.8-30.84c-7.82-2.03-12.6-7.37-13.74-11.48-.76-2.73.24-4.14,1.05-4.97l49.05-50.01c.84-.86,2.34-1.33,4.21-1.33M336.59,79.92c-3.97,0-7.49,1.26-9.92,3.73l-49.05,50.01c-9.12,9.3.05,25.56,16.39,29.8l118.8,30.84c1.31.34,2.61.5,3.87.5,4.03,0,7.67-1.68,9.95-4.71l31.5-41.87c5.15-6.85.71-18.97-8.54-22.84l-104.15-43.58c-3.01-1.26-6.03-1.88-8.83-1.88h0Z" style="fill: #fff; stroke-width: 0px;"/>
    </g>
  </g>
</svg>